<?xml version="1.0" standalone="no"?>
<!DOCTYPE svg PUBLIC "-//W3C//DTD SVG 20010904//EN"
 "http://www.w3.org/TR/2001/REC-SVG-20010904/DTD/svg10.dtd">
<svg version="1.0" xmlns="http://www.w3.org/2000/svg"
 width="613.000000pt" height="422.000000pt" viewBox="0 0 613.000000 422.000000"
 preserveAspectRatio="xMidYMid meet">

<g transform="translate(0.000000,422.000000) scale(0.100000,-0.100000)"
fill="#000000" stroke="none">
<path d="M2173 3818 c-12 -41 -56 -203 -109 -393 -14 -49 -31 -112 -38 -140
-8 -27 -26 -93 -41 -145 -14 -52 -32 -117 -40 -145 -7 -27 -25 -93 -40 -145
-14 -52 -33 -120 -41 -150 -8 -30 -19 -68 -24 -85 -5 -16 -15 -55 -23 -85 -8
-30 -27 -98 -42 -150 -14 -52 -32 -117 -40 -145 -7 -27 -25 -93 -40 -145 -14
-52 -33 -120 -41 -150 -8 -30 -19 -68 -24 -85 -5 -16 -15 -55 -23 -85 -8 -30
-23 -82 -32 -115 -22 -76 -30 -106 -48 -175 -16 -60 -59 -213 -83 -300 -21
-73 -33 -123 -34 -135 0 -6 21 -17 48 -24 26 -7 72 -20 102 -28 30 -9 65 -19
78 -24 37 -15 49 -11 55 18 3 16 17 71 32 123 15 52 33 118 41 145 7 28 25 93
40 145 14 52 33 120 41 150 8 30 18 69 23 85 5 17 16 55 24 85 8 30 27 98 41
150 15 52 33 118 41 145 18 69 37 137 249 900 102 369 195 704 206 745 11 41
24 85 29 98 11 25 5 29 -80 52 -25 7 -63 18 -85 25 -22 7 -56 15 -75 19 -35 6
-36 5 -47 -36z"/>
<path d="M734 2826 l-412 -414 415 -414 415 -415 95 98 c53 54 98 101 101 104
4 3 -133 145 -303 315 l-310 310 309 309 c222 222 306 313 300 322 -12 20
-186 199 -193 199 -3 -1 -191 -187 -417 -414z"/>
<path d="M2624 3148 c-50 -51 -94 -99 -98 -107 -6 -9 78 -100 300 -322 l309
-309 -310 -310 c-170 -170 -307 -312 -303 -315 3 -3 48 -50 101 -104 l95 -98
415 415 415 415 -413 413 c-227 228 -415 414 -417 414 -2 0 -45 -42 -94 -92z"/>
<path d="M3266 1580 c-35 -49 -48 -89 -25 -74 9 5 10 -1 5 -20 -3 -14 -9 -37
-12 -51 -4 -18 -2 -25 8 -25 10 0 20 25 32 78 10 42 24 87 32 99 8 12 14 27
14 33 0 22 -20 8 -54 -40z"/>
<path d="M3354 1595 c-5 -28 -11 -35 -30 -35 -15 0 -24 -6 -24 -15 0 -8 9 -15
20 -15 16 0 20 -7 20 -34 0 -51 16 -86 40 -86 25 0 57 47 42 62 -7 7 -14 3
-22 -12 -16 -29 -30 -10 -30 41 0 35 2 37 40 43 50 8 53 26 4 26 -34 0 -35 1
-29 30 5 23 3 30 -9 30 -9 0 -18 -13 -22 -35z"/>
<path d="M3413 1622 c-8 -5 -8 -12 3 -27 11 -15 17 -16 26 -7 9 9 9 15 -2 27
-8 8 -20 11 -27 7z"/>
<path d="M3805 1620 c-3 -5 -26 -10 -51 -10 -50 0 -61 -19 -11 -21 l32 -1 -36
-15 c-34 -14 -35 -16 -35 -64 l0 -50 80 3 80 3 9 38 c5 21 15 37 23 37 25 0
15 20 -18 34 l-33 14 38 1 c54 1 46 21 -9 21 -27 0 -43 4 -39 10 3 6 -1 10 -9
10 -8 0 -18 -4 -21 -10z m35 -55 c11 -13 5 -15 -41 -15 -38 0 -50 3 -39 10 8
5 25 7 37 3 14 -3 23 -1 23 6 0 15 5 14 20 -4z m10 -45 c0 -5 -25 -10 -55 -10
-30 0 -55 5 -55 10 0 6 25 10 55 10 30 0 55 -4 55 -10z m-32 -37 c-15 -2 -42
-2 -60 0 -18 2 -6 4 27 4 33 0 48 -2 33 -4z"/>
<path d="M4840 1621 c0 -5 -9 -11 -20 -14 -11 -3 -20 -1 -20 4 0 5 -16 9 -35
9 -38 0 -32 12 -69 -136 -19 -75 -19 -74 -1 -74 8 0 15 9 15 20 0 13 7 20 18
20 29 0 42 21 42 65 0 44 22 87 34 67 4 -7 0 -22 -8 -34 -23 -32 -20 -48 9
-48 14 0 25 -3 25 -7 -1 -25 -14 -53 -25 -53 -7 0 -15 -7 -19 -15 -4 -11 1
-15 17 -15 28 0 47 17 47 42 0 10 5 18 10 18 6 0 10 -9 10 -20 0 -21 15 -27
25 -10 10 16 -4 48 -23 53 -10 3 -7 5 9 6 36 1 48 31 13 31 -21 0 -24 4 -19
20 4 14 2 20 -9 20 -8 0 -18 -9 -21 -20 -3 -11 -10 -20 -15 -20 -5 0 -4 11 2
25 9 21 18 25 55 25 32 0 43 4 43 15 0 10 -10 15 -30 15 -16 0 -30 5 -30 10 0
6 -7 10 -15 10 -8 0 -15 -4 -15 -9z m-82 -46 c-6 -14 -13 -24 -14 -22 -6 6 9
47 17 47 5 0 3 -11 -3 -25z m-14 -78 c-10 -26 -22 -20 -16 9 3 15 8 22 14 16
5 -5 6 -16 2 -25z"/>
<path d="M5046 1615 c-4 -10 -20 -15 -51 -15 -32 0 -45 -4 -45 -14 0 -10 13
-16 37 -18 l38 -3 -48 -25 c-26 -14 -47 -31 -47 -37 0 -18 7 -16 55 11 l41 25
-4 -30 c-6 -39 16 -38 30 2 l10 30 29 -27 c24 -23 31 -25 44 -14 14 11 12 15
-14 31 -46 28 -47 39 -2 39 30 0 41 4 41 15 0 11 -11 15 -40 15 -29 0 -40 4
-40 15 0 8 -6 15 -14 15 -8 0 -16 -7 -20 -15z"/>
<path d="M5343 1616 c-25 -11 -31 -26 -11 -26 6 0 4 -8 -7 -20 -9 -10 -15 -26
-12 -34 3 -8 2 -29 -3 -45 -7 -25 -6 -31 7 -31 8 0 17 9 20 20 5 17 14 20 63
20 53 0 58 -2 53 -20 -4 -13 0 -20 10 -20 14 0 27 28 27 58 0 8 -17 12 -51 12
-50 0 -50 0 -35 22 22 32 20 58 -4 58 -11 0 -20 5 -20 10 0 12 -8 11 -37 -4z
m47 -41 c0 -8 -7 -15 -15 -15 -16 0 -20 12 -8 23 11 12 23 8 23 -8z m-40 -35
c0 -5 -5 -10 -11 -10 -5 0 -7 5 -4 10 3 6 8 10 11 10 2 0 4 -4 4 -10z"/>
<path d="M5816 1615 c-3 -8 -12 -15 -21 -15 -8 0 -15 -4 -15 -10 0 -5 5 -10
10 -10 18 0 10 -18 -10 -23 -28 -7 -25 -27 4 -27 19 0 22 -4 18 -25 -2 -14 -9
-28 -15 -32 -6 -4 -8 3 -3 21 5 19 3 26 -9 26 -8 0 -15 -7 -15 -15 0 -9 -6
-28 -14 -44 -9 -17 -11 -33 -6 -41 7 -12 10 -11 16 3 5 14 9 15 20 6 20 -16
166 -18 171 -1 4 9 -13 12 -61 12 -59 0 -66 2 -66 20 0 11 7 20 15 20 8 0 15
5 15 10 0 6 -4 10 -10 10 -5 0 -10 7 -10 15 0 8 7 15 15 15 8 0 15 4 15 10 0
5 6 7 14 4 9 -3 24 7 37 25 25 34 39 39 39 16 0 -8 -7 -15 -15 -15 -8 0 -15
-7 -15 -15 0 -8 6 -15 14 -15 16 0 46 26 46 40 0 5 3 15 6 24 5 13 -3 16 -50
16 -50 0 -75 -12 -45 -22 18 -6 -19 -38 -42 -38 -11 0 -17 5 -14 10 3 6 13 10
21 10 19 0 18 16 -2 24 -8 3 -12 10 -9 16 3 5 0 10 -8 10 -8 0 -17 -7 -21 -15z"/>
<path d="M3480 1605 c0 -7 4 -15 10 -17 5 -1 0 -19 -12 -38 -12 -21 -22 -54
-23 -81 -2 -47 -2 -47 31 -47 31 0 33 2 47 60 14 57 14 60 -4 66 -17 7 -18 10
-6 26 11 15 25 19 62 18 27 -1 50 -4 52 -6 2 -2 -1 -15 -6 -30 -14 -35 -44
-36 -35 -1 10 40 -21 31 -33 -10 l-11 -35 39 0 c42 0 44 -4 29 -44 -7 -19 -17
-26 -35 -26 -16 0 -25 -6 -25 -15 0 -17 32 -20 60 -5 22 12 39 58 44 121 2 24
7 52 11 61 6 16 -3 17 -94 17 -79 0 -101 -3 -101 -14z m21 -132 c-9 -16 -10
-16 -11 -1 0 9 3 25 7 35 7 16 8 17 11 1 2 -10 -1 -25 -7 -35z"/>
<path d="M3955 1611 c-3 -6 14 -12 37 -14 41 -3 41 -4 -9 -5 -66 -2 -70 -21
-5 -23 l47 -2 -40 -6 c-31 -5 -41 -11 -46 -31 -13 -46 -10 -50 29 -52 l37 -1
-35 -4 c-60 -6 -68 -16 -20 -23 l45 -7 -52 -1 c-29 -1 -53 -6 -53 -12 0 -6 43
-10 110 -10 110 0 153 16 63 23 l-48 3 48 2 c59 2 62 20 5 25 l-43 4 41 1 c38
2 42 5 48 33 9 47 9 47 -31 52 -31 3 -29 4 15 5 65 2 69 21 5 24 l-48 1 43 4
c23 2 42 8 42 14 0 12 -177 12 -185 0z m48 -78 c-7 -2 -19 -2 -25 0 -7 3 -2 5
12 5 14 0 19 -2 13 -5z m80 0 c-7 -2 -21 -2 -30 0 -10 3 -4 5 12 5 17 0 24 -2
18 -5z m-80 -30 c-7 -2 -21 -2 -30 0 -10 3 -4 5 12 5 17 0 24 -2 18 -5z m70 0
c-7 -2 -19 -2 -25 0 -7 3 -2 5 12 5 14 0 19 -2 13 -5z"/>
<path d="M5432 1580 l-10 -40 43 0 c41 0 43 1 53 40 l10 40 -43 0 c-41 0 -43
-1 -53 -40z m58 -5 c0 -8 -7 -15 -15 -15 -8 0 -15 7 -15 15 0 8 7 15 15 15 8
0 15 -7 15 -15z"/>
<path d="M5560 1578 c-6 -24 -13 -49 -15 -55 -3 -9 8 -13 37 -13 23 0 38 -3
35 -6 -10 -10 13 -45 24 -38 6 3 9 15 6 25 -4 16 1 19 38 19 39 0 43 2 48 29
3 16 9 40 13 55 l6 26 -91 0 -90 0 -11 -42z m80 12 c0 -5 -12 -10 -26 -10 -14
0 -23 4 -19 10 3 6 15 10 26 10 10 0 19 -4 19 -10z m70 0 c0 -5 -9 -10 -20
-10 -11 0 -20 5 -20 10 0 6 9 10 20 10 11 0 20 -4 20 -10z m-85 -50 c-3 -5
-15 -10 -26 -10 -10 0 -19 5 -19 10 0 6 12 10 26 10 14 0 23 -4 19 -10z m75 0
c0 -5 -12 -10 -26 -10 -14 0 -23 4 -19 10 3 6 15 10 26 10 10 0 19 -4 19 -10z"/>
<path d="M4317 1603 c-9 -16 -39 -154 -35 -159 3 -2 22 -5 43 -6 43 -2 61 16
71 69 8 45 0 63 -31 63 -18 0 -25 5 -25 20 0 20 -15 27 -23 13z m53 -87 c0
-31 -24 -61 -43 -53 -13 5 -14 12 -7 38 15 52 50 62 50 15z"/>
<path d="M5195 1590 c-9 -10 -15 -26 -12 -34 3 -8 0 -20 -8 -26 -24 -20 -30
-72 -10 -86 10 -8 22 -11 28 -7 6 3 25 6 44 5 29 -1 32 1 24 15 -7 13 -4 25
11 45 16 23 17 28 4 28 -8 0 -18 -4 -21 -10 -11 -18 -22 -11 -35 21 -16 38 -2
57 28 38 24 -15 35 -9 26 15 -9 22 -57 20 -79 -4z m18 -99 c5 -22 0 -31 -20
-31 -13 0 -18 31 -6 43 11 12 21 8 26 -12z"/>
<path d="M4442 1503 c2 -38 -1 -76 -6 -85 -6 -13 -4 -18 5 -18 8 0 38 38 66
85 42 68 49 85 35 85 -10 0 -26 -15 -36 -35 -11 -19 -23 -35 -28 -35 -4 0 -8
16 -8 35 0 25 -5 35 -15 35 -12 0 -15 -13 -13 -67z"/>
<path d="M5867 1523 c-2 -5 -7 -20 -11 -35 -6 -28 -6 -28 43 -28 49 0 60 10
61 58 0 13 -86 18 -93 5z m63 -28 c0 -9 -9 -15 -25 -15 -18 0 -23 4 -19 15 4
8 15 15 25 15 10 0 19 -7 19 -15z"/>
<path d="M2315 1509 c-22 -6 -78 -28 -124 -50 -117 -57 -213 -154 -269 -270
-23 -46 -46 -104 -51 -129 -15 -67 -13 -227 4 -293 36 -137 137 -277 258 -357
197 -129 483 -124 673 12 l45 32 123 -123 c114 -114 125 -122 157 -119 30 3
34 6 37 36 3 31 -6 43 -119 157 l-122 124 37 55 c166 250 123 586 -100 784
-68 61 -168 116 -250 137 -65 17 -234 19 -299 4z m265 -100 c172 -39 330 -197
369 -369 15 -66 13 -187 -4 -255 -43 -164 -172 -296 -338 -347 -97 -29 -244
-22 -336 15 -183 76 -298 237 -309 432 -5 108 7 176 50 263 58 117 200 232
324 261 54 12 190 13 244 0z"/>
<path d="M3540 1475 c0 -10 11 -15 35 -15 24 0 35 5 35 15 0 10 -11 15 -35 15
-24 0 -35 -5 -35 -15z"/>
<path d="M4771 1466 c-17 -18 -19 -26 -10 -32 7 -4 19 2 31 16 34 42 17 56
-21 16z"/>
<path d="M5380 1480 c0 -13 -54 -40 -80 -40 -11 0 -20 -7 -20 -15 0 -20 28
-19 72 3 35 18 37 18 73 -1 33 -16 39 -17 52 -4 13 12 9 16 -26 31 -23 8 -41
20 -41 26 0 5 -7 10 -15 10 -8 0 -15 -4 -15 -10z"/>
<path d="M5521 1464 c-6 -15 -9 -29 -6 -33 7 -7 45 36 45 50 0 20 -28 7 -39
-17z"/>
<path d="M5565 1460 c-9 -40 0 -50 45 -50 28 0 45 7 60 22 15 16 23 19 28 11
12 -19 32 1 25 25 -6 24 -33 30 -33 7 0 -9 -6 -12 -15 -9 -8 4 -17 -1 -21 -10
-4 -10 -18 -16 -36 -16 -27 0 -30 2 -24 25 5 18 2 25 -8 25 -8 0 -17 -13 -21
-30z"/>
<path d="M5094 1473 c-6 -2 -9 -17 -6 -33 5 -35 32 -30 32 5 0 25 -8 35 -26
28z"/>
<path d="M4927 1446 c-15 -22 -13 -36 3 -36 3 0 14 14 23 30 15 25 16 30 4 30
-8 0 -22 -11 -30 -24z"/>
<path d="M4980 1445 c0 -16 6 -25 15 -25 9 0 15 9 15 25 0 16 -6 25 -15 25 -9
0 -15 -9 -15 -25z"/>
<path d="M5030 1445 c0 -16 6 -25 15 -25 9 0 15 9 15 25 0 16 -6 25 -15 25 -9
0 -15 -9 -15 -25z"/>
<path d="M3665 1430 c-4 -6 33 -10 104 -10 67 0 111 4 111 10 0 6 -41 10 -104
10 -59 0 -108 -4 -111 -10z"/>
</g>
</svg>
